<svg xmlns="http://www.w3.org/2000/svg" viewBox="0 0 2528.02 566.92"><defs><style>.cls-1{fill:#ed8426;}.cls-2{fill:#302f2f;}</style></defs><g id="Layer_2" data-name="Layer 2"><g id="Layer_1-2" data-name="Layer 1"><path class="cls-1" d="M243.48,363.8a70.86,70.86,0,0,1-8.28,18c-12.34,20.14-30.25,34.16-50.56,45.33C166.7,437,147.87,444.58,127.36,447c-10.46,1.21-20.94,1.41-30.73-3.68A25.85,25.85,0,0,1,88,436.07c-3.19-4.17-4.4-8.28-2.09-13.79C90.59,411,93,399.17,91.68,386.76c-2-19.31-13.32-30.88-30.71-37.54a62.67,62.67,0,0,0-14.5-3.83c-4-.52-6.11-2.66-7.35-6.31-5.52-15.83-2.23-29.89,8.58-42.34,7.35-8.54,7.54-8.51,15.85-1.4,17.42,14.88,37.12,25.15,59.62,29.78,3.21.67,3.73,2.1,3.3,5.06-1.84,12.65-2.42,25.36-.12,38,1.72,9.41,5,18.21,12.66,24.54,9.43,7.76,20.46,7.76,31.59,5.68,19.14-3.55,36-12.72,52.4-22.62,5.45-3.29,10.7-6.93,16.09-10.33C240.18,364.65,241.18,363.22,243.48,363.8Z" transform="translate(0 -15.49)"/><path class="cls-1" d="M274.85,224.19a90.17,90.17,0,0,1,1-25.3c4.59-24.78,17-45.58,32.81-64.62,11.39-13.79,24.18-26,39.77-35,8.36-4.85,17.15-8.45,27.13-8.07A26.08,26.08,0,0,1,388,94.91c4,2.39,5.95,5.51,6.29,10.63,1.09,16.61,4.75,32.46,17.26,44.79,9.2,9.06,20.66,11.77,33,11.51A71.66,71.66,0,0,0,463.9,159a6,6,0,0,1,6.26,1.57c16,14.63,16.28,34.6,8.08,51.74-1.36,2.83-3.49,1.74-5.46,1.08a138.89,138.89,0,0,0-47.94-7.16,100.63,100.63,0,0,0-23,3c-3.89,1-5.37-.2-6.44-3.9-4.07-14.09-9.81-27.4-19.36-38.81-10.86-13-25.61-16.32-40.85-8.84C321.07,164.59,310.8,176,301.1,188a278.66,278.66,0,0,0-22.27,32.17C278,221.56,277.48,223.48,274.85,224.19Z" transform="translate(0 -15.49)"/><path class="cls-1" d="M303.58,358.9c4.29,5.37,7.08,11.35,9.48,17.51,7.73,19.88,8.72,40.45,6.26,61.39-2.76,23.1-8.64,45.27-20.71,65.44A64.13,64.13,0,0,1,286.51,518a31.42,31.42,0,0,1-12.14,7c-9.35,2.82-15.13.74-20.33-7.35a79.77,79.77,0,0,0-19.86-21.72c-15.89-11.59-32.46-12.2-49.59-2.81a68.07,68.07,0,0,0-15,11c-3.15,3.09-6.15,3.16-9.86,1.9-15.69-5.31-24.82-16.35-28.18-32.3-2.32-10.86-2.26-10.91,8.55-13.29,22.34-4.92,42.56-14.2,59.88-29.31,2.51-2.2,3.86-1.63,6,.47,9.78,9.79,20.34,18.73,33.21,24.37,11.88,5.21,23.74,6.57,34.93-1.69,5.52-4,9.37-9.47,12.5-15.45,7.05-13.51,10.23-28.17,12.43-43.07a254.69,254.69,0,0,0,3-31.67C302,362.43,302,360.71,303.58,358.9Z" transform="translate(0 -15.49)"/><path class="cls-1" d="M337.5,313.49A52.67,52.67,0,0,1,354,315.84c24.83,6.79,44.13,21.8,61,40.45C428.42,371,439.72,387.12,447,405.78c3.15,8.12,5.1,16.5,4.6,25.32a27,27,0,0,1-6.34,16.25c-3.06,3.63-6.56,5.77-11.86,4.81A72.11,72.11,0,0,0,399.53,454c-18.74,5.59-30.27,20.05-31.91,39.48-.48,5.75-1.4,11.46-.29,17.23.49,2.53-1.21,3.87-3,5.17-12.42,9.12-25.86,10.58-40.09,5a52.33,52.33,0,0,1-11.56-6.32c-2.16-1.54-2.54-2.9-1.19-5.27,12.3-21.72,18.94-44.91,17.76-70-.2-4.15,2.22-4.51,5.44-4.8,14.16-1.32,27.93-4.16,40.58-11,10.93-5.94,18.57-14.31,19-27.4.27-9.19-2.76-17.66-7.17-25.57-9.49-17-22.46-31.25-36.49-44.53Z" transform="translate(0 -15.49)"/><path class="cls-1" d="M222,258.77c-11.61-5.22-20.35-13.3-27.73-22.81-16.9-21.79-25.4-47.05-30.05-73.82a123.1,123.1,0,0,1-.92-39.39c1.38-9.08,3.95-17.76,10.75-24.57a26.41,26.41,0,0,1,9.14-5.82,10.87,10.87,0,0,1,11.11,1.25A73.93,73.93,0,0,0,224.89,106c19.6,3.14,34.33-4.35,45.15-20.46a74,74,0,0,0,8.27-16.18,6.49,6.49,0,0,1,5.47-4.71c16.68-3,30.22,2.3,40.72,15.39,7.78,9.72,7.65,9.76-2,17.47-17.31,13.73-30.82,30.44-39.38,50.9-1.53,3.67-3.12,4.21-6.83,2.86-13.06-4.7-26.46-7.59-40.53-7.08-20.6.74-33.18,13.22-34,33.85s5,39.88,11.81,58.92C216.21,244.23,219.19,251.47,222,258.77Z" transform="translate(0 -15.49)"/><path class="cls-1" d="M326.72,249.48c4.16-5.36,8.75-8.54,13.45-11.53A115,115,0,0,1,388.79,221c26.36-3.16,52.4-2,77.79,6.64,9.19,3.13,17.58,7.53,24.33,14.64a24.79,24.79,0,0,1,6.65,12.24c1.26,6.17.55,11.21-5.15,15.63-8.37,6.43-14.55,15.07-19.07,24.63-8.4,17.77-5.13,35.85,8.85,50.79a78.34,78.34,0,0,0,12.13,11,5.81,5.81,0,0,1,2.67,5.83c-2.19,21.38-15.93,33.59-35.8,38.34-3.1.74-3.44-1.73-4.14-3.68a141.56,141.56,0,0,0-25.68-44.23,89.26,89.26,0,0,0-14.43-13.79c-3.25-2.43-3.61-4.14-1.12-7.59,8.28-11.5,15.22-23.75,18.39-37.8,4.26-18.94-3-32.91-20.89-40.23-9.69-4-19.86-5.67-30.2-6.12a292.71,292.71,0,0,0-53.59,2.23A26.3,26.3,0,0,1,326.72,249.48Z" transform="translate(0 -15.49)"/><path class="cls-1" d="M204.9,312.17c-2.64,2.17-5.2,2.59-7.61,3.21-17.77,4.6-35.54,3.81-53.14-.75-29.3-7.57-55.68-20.74-77.6-41.95-6.24-6.05-11.33-13.06-14.11-21.49a26,26,0,0,1-.76-13.91c1.23-5.67,3.89-9.54,10.25-11.22a69.25,69.25,0,0,0,30-16.49c12.42-11.66,16.18-25.88,12.4-42.29a75.18,75.18,0,0,0-7.81-19.83,6.94,6.94,0,0,1,.14-7.63c10.71-18.51,29.06-22.91,47.45-19.47,3.57.67,3,3.32,2.76,5.68-1.84,18.73.84,36.9,6.79,54.62a93.21,93.21,0,0,0,6.11,14.2c1.84,3.39,1,4.92-2.14,6.73-12.17,7-23.51,15.1-32.1,26.44-12.92,17.08-10.77,34.82,5.52,48.73,15.77,13.44,34.42,21.41,53.57,28.45C191.2,307.58,197.77,309.72,204.9,312.17Z" transform="translate(0 -15.49)"/><path class="cls-2" d="M267.58,54.69c0,22.23-17.26,39.61-39.43,39.65s-39.53-17.11-39.53-39.41a39.49,39.49,0,0,1,79-1.16Z" transform="translate(0 -15.49)"/><path class="cls-2" d="M483,312.66c0-22.28,17.18-39.53,39.44-39.53A39.09,39.09,0,0,1,562,311.77v.89c0,22.17-17.34,39.32-39.66,39.27A39.1,39.1,0,0,1,483,313Z" transform="translate(0 -15.49)"/><path class="cls-2" d="M445.72,71c22.23,0,39.64,17.27,39.67,39.39a39,39,0,0,1-39.48,39.52c-22.27,0-39.45-17.41-39.44-39.64A38.87,38.87,0,0,1,444.93,71Z" transform="translate(0 -15.49)"/><path class="cls-2" d="M78.93,396.61a38.87,38.87,0,0,1-38.56,39.18h-.75c-22.4,0-39.68-17.4-39.62-39.9.07-22.07,17.47-39,40-38.95C61.71,357,79,374.6,78.93,396.61Z" transform="translate(0 -15.49)"/><path class="cls-2" d="M209.8,579.65c-22.15,0-39.39-17.41-39.37-39.67,0-22.06,17.46-39.27,39.77-39.19,22.06.08,39.22,17.6,39.15,39.91C249.28,562.55,231.88,579.68,209.8,579.65Z" transform="translate(0 -15.49)"/><path class="cls-2" d="M418.87,460.73A38.77,38.77,0,0,1,458,499.08V500a39.23,39.23,0,0,1-38.87,39.59h-.66c-22.31,0-39.44-17.16-39.4-39.48a39.33,39.33,0,0,1,39.3-39.37Z" transform="translate(0 -15.49)"/><path class="cls-2" d="M91.69,174.85c0,21.76-17.27,38.81-39.21,38.78s-38.85-17.24-38.81-39.18c0-21.78,17.25-38.8,39.2-38.76S91.72,152.92,91.69,174.85Z" transform="translate(0 -15.49)"/><path class="cls-1" d="M706.8,217c-18,1.75-41.25,2-61.5,2-6.5,0-12.5-.25-20.5-.25,1-16,1.5-26.5,1.5-40.5C626.3,123,625.8,87,623.8,54c13.5-1.5,22.5-3,34.75-6.75-1.75,29.75-3.25,80.5-3.25,114,0,11,.25,21.75.5,32.5,27.25-.5,46.75-3.25,57-6.5A261.28,261.28,0,0,1,706.8,217Z" transform="translate(0 -15.49)"/><path class="cls-1" d="M821.8,150.25c0,22.5-1.75,56.25-2.25,67-7.5,2.75-19,5-27.25,6q.38-4.12.75-9c-4.25,2.25-12.25,6.25-26,6.25-24.25,0-40.25-14.5-40.25-37.75,0-27.25,23-39.5,51.25-39.5a113.78,113.78,0,0,1,15.5,1.25c-.75-16-7.75-22.5-24.5-22.5a62.78,62.78,0,0,0-27.5,6c1.5-9,4.5-20.25,7.5-27a82.75,82.75,0,0,1,22.5-3.5c33.5,0,50.25,17,50.25,52.5ZM778.05,164.5c-14,0-23.25,7.25-23.25,18.5,0,9.25,5.5,16.25,18,16.25a39.27,39.27,0,0,0,20.25-5.5c.75-7.25,1-19.75,1-28.25A110,110,0,0,0,778.05,164.5Z" transform="translate(0 -15.49)"/><path class="cls-1" d="M908.05,130c-6.5.75-18.25.5-27.25,0-.75,12.75-1.25,27.5-1.25,35.25,0,22.5,6.75,28.5,24.5,29A79.76,79.76,0,0,0,914.8,194c-2.5,9.25-5,18.5-7.75,25.25-37.75.75-56-15-56-48.25,0-12,.75-26.5,1.75-41.5-4.75,0-10.75.25-15.25.5a195,195,0,0,0,6.75-23c2.75,0,6.5-.25,9-.25a295,295,0,0,0-.5-36.25c9.5-2.25,19.25-5.5,32-10.75-2,17.75-2.75,30.25-3.25,46.5a212.39,212.39,0,0,0,35.75-2A187.82,187.82,0,0,1,908.05,130Z" transform="translate(0 -15.49)"/><path class="cls-1" d="M961.55,177c0,19.25.5,28,.75,40.75a246.57,246.57,0,0,1-28.75,1.75c.5-8.25.5-18.75.5-30,0-41.75-.75-67.25-1.75-81.5a274.82,274.82,0,0,0,31-9C962.05,116.25,961.55,151,961.55,177Zm.25-104.5a132.6,132.6,0,0,1-26.25,5c.75-11,.5-18,.25-28.75a124.63,124.63,0,0,0,28-6A210.13,210.13,0,0,1,961.8,72.5Z" transform="translate(0 -15.49)"/><path class="cls-1" d="M1049.54,130c-6.5.75-18.25.5-27.25,0-.75,12.75-1.25,27.5-1.25,35.25,0,22.5,6.75,28.5,24.5,29a79.76,79.76,0,0,0,10.75-.25c-2.5,9.25-5,18.5-7.75,25.25-37.75.75-56-15-56-48.25,0-12,.75-26.5,1.75-41.5-4.75,0-10.75.25-15.25.5a195,195,0,0,0,6.75-23c2.75,0,6.5-.25,9-.25a295,295,0,0,0-.5-36.25c9.5-2.25,19.25-5.5,32-10.75-2,17.75-2.75,30.25-3.25,46.5a212.39,212.39,0,0,0,35.75-2A187.82,187.82,0,0,1,1049.54,130Z" transform="translate(0 -15.49)"/><path class="cls-1" d="M1175,217c-4,1-8.5,2-13,3-4.75,1-9.5,1.75-14,2.5v-11c-8.5,5.75-18.5,8.5-29.5,8.5-28,0-44.5-19-44.5-53.5,0-31.5,1.75-48.75,3-60.5,9.75-1.75,20-3.25,32-5a379,379,0,0,0-5.5,62.25c0,22.75,6.75,31.5,22.25,31.5,6.75,0,15.5-3.25,20.25-6.5.25-26.5-.5-53.5-2.25-79.5,10.5-1.75,19.25-4.25,31.75-7.75C1174.54,125.25,1174,194.75,1175,217Z" transform="translate(0 -15.49)"/><path class="cls-1" d="M1298.54,172c0,14.5-.25,30.5,1,46-7.75,2.75-17.75,5-28,7.5.25-2.5.5-5.75.5-8.5a58.79,58.79,0,0,1-18.25,2.75c-32,0-58.25-21.75-58.25-60.25,0-34,21.25-61,56.5-61a61.7,61.7,0,0,1,19.75,3.25c-.5-28.25-1.75-44.25-3-58a190.41,190.41,0,0,0,32-10.5C1299.54,58.5,1298.54,123.75,1298.54,172Zm-27.25-44.25a45.44,45.44,0,0,0-16.75-3.5c-17.25,0-29.75,11.75-29.75,33.75,0,25.75,14.25,38,33.5,38a56.93,56.93,0,0,0,13.5-2C1272,178.5,1271.54,147,1271.29,127.75Z" transform="translate(0 -15.49)"/><path class="cls-1" d="M1419,150.5c0,3.75-.25,9.5-.5,12.75-18.75,4.25-44.25,8.5-69.5,9,2.25,17.25,14,25,33.5,25a48.42,48.42,0,0,0,28-8.75,234.7,234.7,0,0,1-2.5,26.25c-5.75,3-14.25,6-31.25,6-33.75,0-57.25-20.5-57.25-60.5,0-41.25,23.5-62,53-62,29,0,46.5,19.25,46.5,52ZM1370.29,123c-10.5,0-21.75,10-22.25,28,16-.25,32.25-2,43-4.5C1391,130.5,1383.79,123,1370.29,123Z" transform="translate(0 -15.49)"/><path class="cls-2" d="M1569.28,78.75c-9.5-.75-22.75-1.25-35.5-1-.5,24.75-1.25,66.5-1.25,96.5,0,12.25,0,23.75.5,42.25-10.5,2.5-17.5,3.5-31,4.5,1.5-15.25,2-31.75,2-43.75,0-38.5-.25-75.5-1.25-99a400.09,400.09,0,0,0-42,1.5,227.71,227.71,0,0,0,9.75-27.5c30,.75,83.75.25,108-2A158.94,158.94,0,0,1,1569.28,78.75Z" transform="translate(0 -15.49)"/><path class="cls-2" d="M1666.53,150.5c0,3.75-.25,9.5-.5,12.75-18.75,4.25-44.25,8.5-69.5,9,2.25,17.25,14,25,33.5,25a48.42,48.42,0,0,0,28-8.75,234.7,234.7,0,0,1-2.5,26.25c-5.75,3-14.25,6-31.25,6-33.75,0-57.25-20.5-57.25-60.5,0-41.25,23.5-62,53-62,29,0,46.5,19.25,46.5,52ZM1617.78,123c-10.5,0-21.75,10-22.25,28,16-.25,32.25-2,43-4.5C1638.53,130.5,1631.28,123,1617.78,123Z" transform="translate(0 -15.49)"/><path class="cls-2" d="M1763,216.75c-5.75,2-15.25,3.5-25.5,3.5-33,0-57.5-20.5-57.5-59,0-42.75,28.5-62.75,60.25-62.75a84.77,84.77,0,0,1,23.25,3,186.37,186.37,0,0,1,2.25,26.5c-6.75-3.25-13.25-4.25-20.75-4.25-20.25,0-36.25,11.75-36.25,37.5,0,23.5,13.75,35.25,33.75,35.25a50.9,50.9,0,0,0,24.75-5.75C1766,201.25,1764.53,209.75,1763,216.75Z" transform="translate(0 -15.49)"/><path class="cls-2" d="M1888.78,162.5a358.68,358.68,0,0,1-4.75,54.75,195.36,195.36,0,0,1-30,2.75c2.25-10.5,5.5-34,5.5-57,0-30-7.75-38.25-22.25-38.25-7.75,0-15.75,4.5-21,8.75-.25,31.75.25,61.75,1.75,83.75a243,243,0,0,1-30.25,3c.5-13,.5-23.75.5-33.75,0-40.75-1.5-119.5-2.5-142a309.66,309.66,0,0,0,32.5-10.25c-1.75,21.75-3,37.75-3.25,73.5,8.25-5.75,20.5-9.5,30.75-9.5,28.5,0,43,17,43,64Z" transform="translate(0 -15.49)"/><path class="cls-2" d="M2017,153.75a623.46,623.46,0,0,1-3.5,64,216.58,216.58,0,0,1-29.75,1.75A475.74,475.74,0,0,0,1988,158c0-26.25-7.75-33.75-19.75-33.75a35.23,35.23,0,0,0-23.75,9.25c-.25,29,.25,62.25,2,82.75-10.5,1.25-18.75,2.5-30.25,3.25,1-7.75.75-17.5.75-28.75,0-30.75-2-68-3.75-84a263,263,0,0,0,30.75-11l-.5,12.75a51.18,51.18,0,0,1,30.75-10.25c28,0,42.75,19,42.75,55.25Z" transform="translate(0 -15.49)"/><path class="cls-2" d="M2141,155.75c0,43.75-24,65.25-52.75,65.25-28.5,0-51.75-20.25-51.75-63.25,0-36,22.5-59.5,53.5-59.5,29.5,0,51,21.75,51,57.25Zm-29,2.75c0-24.5-10.25-35.25-22-35.25-14.75,0-24.25,11.25-24.25,35.5,0,26,9,39,23,39,13.25,0,23.25-15.25,23.25-39Z" transform="translate(0 -15.49)"/><path class="cls-2" d="M2189.52,173.25c0,16,.25,31.5.5,44a191.82,191.82,0,0,1-29,3c.75-14.25,1-26.25,1-49,0-58-1-103.75-2-125.5,10-2.5,19.5-6.25,32.25-11.25C2190.77,64,2189.52,108.5,2189.52,173.25Z" transform="translate(0 -15.49)"/><path class="cls-2" d="M2305.52,150.25c0,22.5-1.75,56.25-2.25,67-7.5,2.75-19,5-27.25,6q.38-4.12.75-9c-4.25,2.25-12.25,6.25-26,6.25-24.25,0-40.25-14.5-40.25-37.75,0-27.25,23-39.5,51.25-39.5a113.78,113.78,0,0,1,15.5,1.25c-.75-16-7.75-22.5-24.5-22.5a62.78,62.78,0,0,0-27.5,6c1.5-9,4.5-20.25,7.5-27a82.75,82.75,0,0,1,22.5-3.5c33.5,0,50.25,17,50.25,52.5Zm-43.75,14.25c-14,0-23.25,7.25-23.25,18.5,0,9.25,5.5,16.25,18,16.25a39.27,39.27,0,0,0,20.25-5.5c.75-7.25,1-19.75,1-28.25A110,110,0,0,0,2261.77,164.5Z" transform="translate(0 -15.49)"/><path class="cls-2" d="M2437.27,154c0,41-25.75,66.25-61.5,66.25-11,0-22.5-2.5-30.25-4.5a93.46,93.46,0,0,1-13,4c1-21.5,1.25-44,1.25-70.5,0-35.75-.25-80.75-2.25-106.25,10-2.5,19.75-5,32.25-9.25-1.25,17.25-2.25,41.5-2.5,71.75a58,58,0,0,1,28.5-7.25c28.5,0,47.5,22.25,47.5,55.5Zm-29.5,2.25c0-19-10.25-31.75-25.25-31.75-8.5,0-16.25,2.75-20.75,5.75-.75,18.5-1.5,47.75-1.25,64.5a49.44,49.44,0,0,0,14.5,2c20.75,0,32.75-15,32.75-40.25Z" transform="translate(0 -15.49)"/><path class="cls-2" d="M2528,185c0,20-17.25,34.75-46.75,34.75a104,104,0,0,1-25.5-3.25,168.75,168.75,0,0,1-6.5-27.75c10.25,5.5,20.5,7.75,32.25,7.75,12,0,18.25-3.25,18.25-10,0-7-6.25-10.5-22.75-20.5-13.5-8.75-23.5-17.75-23.5-33.5,0-19.25,17.5-34,44.25-34a79.36,79.36,0,0,1,23,3.25,150.28,150.28,0,0,1,4.75,27c-5.25-2.5-14.5-5.75-24-5.75-13.5,0-18,3.25-18,9.25,0,5.75,7,10.5,15,15.25,16.25,9.5,29.5,18,29.5,37.25Z" transform="translate(0 -15.49)"/><path class="cls-2" d="M734.8,329.72c0,38.5-32,63.75-79.75,68.5,0,17.75.25,34.5,1.25,48.5-10.5,1.25-17.75,2-30.25,2.75.75-14,1-26.75,1-45,0-43.25-1.5-104-2.25-120.75,9.75-2.5,21-5,33.5-10-.25,3.5-.5,6.5-.5,10.25,6-3,17.75-5.5,28.5-5.5,28.75,0,48.5,18.5,48.5,51ZM704.3,332c0-17.5-10.5-27.25-27.75-27.25-8.25,0-15.25,2-19.5,4.25-1,18.5-1.75,45.75-1.5,63.25,35.5-3,48.75-20.75,48.75-40Z" transform="translate(0 -15.49)"/><path class="cls-2" d="M820.54,358.47c-3.75-1.75-8.5-2.25-13-2.25-10.75,0-18.25,6.25-24,15.5a689.79,689.79,0,0,0,1.75,74.75,219.38,219.38,0,0,1-29.75,2.75c1-29.5,0-78.25-2-114.25a178.28,178.28,0,0,0,30.5-9.25c-.25,5.5-1,12.5-1.25,20.25H783c9.25-12.75,19-19,31.75-19a38.63,38.63,0,0,1,11,1.5A200.22,200.22,0,0,1,820.54,358.47Z" transform="translate(0 -15.49)"/><path class="cls-2" d="M870.54,405.47c0,19.25.5,28,.75,40.75A246.57,246.57,0,0,1,842.54,448c.5-8.25.5-18.75.5-30,0-41.75-.75-67.25-1.75-81.5a274.82,274.82,0,0,0,31-9C871,344.72,870.54,379.47,870.54,405.47Zm.25-104.5a132.6,132.6,0,0,1-26.25,5c.75-11,.5-18,.25-28.75a124.63,124.63,0,0,0,28-6A210.13,210.13,0,0,1,870.79,301Z" transform="translate(0 -15.49)"/><path class="cls-2" d="M951,446a245.32,245.32,0,0,1-26.5,4.25c-9.25-33.75-26.75-85.25-37.25-115.5,12.25-.75,21-1.25,30.5-2.75,6.25,19,16,59,21.75,82.75l.75-.25C948,391.22,960.54,352,965.54,328a183.13,183.13,0,0,1,29,7.75C986.54,360.72,966.29,411.22,951,446Z" transform="translate(0 -15.49)"/><path class="cls-2" d="M1091.54,378.72c0,22.5-1.75,56.25-2.25,67-7.5,2.75-19,5-27.25,6q.38-4.12.75-9c-4.25,2.25-12.25,6.25-26,6.25-24.25,0-40.25-14.5-40.25-37.75,0-27.25,23-39.5,51.25-39.5a113.78,113.78,0,0,1,15.5,1.25c-.75-16-7.75-22.5-24.5-22.5a62.78,62.78,0,0,0-27.5,6c1.5-9,4.5-20.25,7.5-27a82.75,82.75,0,0,1,22.5-3.5c33.5,0,50.25,17,50.25,52.5ZM1047.79,393c-14,0-23.25,7.25-23.25,18.5,0,9.25,5.5,16.25,18,16.25a39.27,39.27,0,0,0,20.25-5.5c.75-7.25,1-19.75,1-28.25A110,110,0,0,0,1047.79,393Z" transform="translate(0 -15.49)"/><path class="cls-2" d="M1177.79,358.47c-6.5.75-18.25.5-27.25,0-.75,12.75-1.25,27.5-1.25,35.25,0,22.5,6.75,28.5,24.5,29a79.76,79.76,0,0,0,10.75-.25c-2.5,9.25-5,18.5-7.75,25.25-37.75.75-56-15-56-48.25,0-12,.75-26.5,1.75-41.5-4.75,0-10.75.25-15.25.5a195,195,0,0,0,6.75-23c2.75,0,6.5-.25,9-.25a295,295,0,0,0-.5-36.25c9.5-2.25,19.25-5.5,32-10.75-2,17.75-2.75,30.25-3.25,46.5a212.39,212.39,0,0,0,35.75-2A187.82,187.82,0,0,1,1177.79,358.47Z" transform="translate(0 -15.49)"/><path class="cls-2" d="M1294,379c0,3.75-.25,9.5-.5,12.75-18.75,4.25-44.25,8.5-69.5,9,2.25,17.25,14,25,33.5,25a48.42,48.42,0,0,0,28-8.75,234.7,234.7,0,0,1-2.5,26.25c-5.75,3-14.25,6-31.25,6-33.75,0-57.25-20.5-57.25-60.5,0-41.25,23.5-62,53-62,29,0,46.5,19.25,46.5,52Zm-48.75-27.5c-10.5,0-21.75,10-22.25,28,16-.25,32.25-2,43-4.5C1266,359,1258.79,351.47,1245.29,351.47Z" transform="translate(0 -15.49)"/><path class="cls-2" d="M1441.54,445.47c-18,1.75-41.25,2-61.5,2-6.5,0-12.5-.25-20.5-.25,1-16,1.5-26.5,1.5-40.5,0-55.25-.5-91.25-2.5-124.25,13.5-1.5,22.5-3,34.75-6.75-1.75,29.75-3.25,80.5-3.25,114,0,11,.25,21.75.5,32.5,27.25-.5,46.75-3.25,57-6.5A261.28,261.28,0,0,1,1441.54,445.47Z" transform="translate(0 -15.49)"/><path class="cls-2" d="M1493.78,405.47c0,19.25.5,28,.75,40.75a246.57,246.57,0,0,1-28.75,1.75c.5-8.25.5-18.75.5-30,0-41.75-.75-67.25-1.75-81.5a274.82,274.82,0,0,0,31-9C1494.28,344.72,1493.78,379.47,1493.78,405.47ZM1494,301a132.6,132.6,0,0,1-26.25,5c.75-11,.5-18,.25-28.75a124.63,124.63,0,0,0,28-6A210.13,210.13,0,0,1,1494,301Z" transform="translate(0 -15.49)"/><path class="cls-2" d="M1687.78,387.22c0,23-1.75,46-3.5,58.75a259.65,259.65,0,0,1-30.5,3.25c2.25-13.25,4.5-35.25,4.5-59.5,0-27.75-7-35-19.25-35-8.25,0-16,6-20,9.25.75,8.5,1.75,21.75,1.75,35,0,15.25-.5,31.75-1.25,47.25-9.75,1-19.75,1.5-30.5,1.75,1.25-17.25,2.25-35,2.25-56.5,0-30.75-5-38.25-17.25-38.25-8.75,0-17,5-22,10.75a787.36,787.36,0,0,0,1,81.75,210.83,210.83,0,0,1-30.75,3.75c1.5-12,1.25-22.75,1.25-36.25,0-19.25-2.25-60.5-3.5-77.75a219.36,219.36,0,0,0,31.5-11l-.5,14.25c7.25-6.75,19.25-11.75,28.75-11.75,15.5,0,24.25,6.25,30.25,15,10-7.5,21.5-13.5,35-13.5,26.5,0,42.75,18.75,42.75,58.5Z" transform="translate(0 -15.49)"/><path class="cls-2" d="M1743.53,405.47c0,19.25.5,28,.75,40.75a246.57,246.57,0,0,1-28.75,1.75c.5-8.25.5-18.75.5-30,0-41.75-.75-67.25-1.75-81.5a274.82,274.82,0,0,0,31-9C1744,344.72,1743.53,379.47,1743.53,405.47Zm.25-104.5a132.6,132.6,0,0,1-26.25,5c.75-11,.5-18,.25-28.75a124.63,124.63,0,0,0,28-6A210.13,210.13,0,0,1,1743.78,301Z" transform="translate(0 -15.49)"/><path class="cls-2" d="M1831.53,358.47c-6.5.75-18.25.5-27.25,0-.75,12.75-1.25,27.5-1.25,35.25,0,22.5,6.75,28.5,24.5,29a79.76,79.76,0,0,0,10.75-.25c-2.5,9.25-5,18.5-7.75,25.25-37.75.75-56-15-56-48.25,0-12,.75-26.5,1.75-41.5-4.75,0-10.75.25-15.25.5a195,195,0,0,0,6.75-23c2.75,0,6.5-.25,9-.25a295,295,0,0,0-.5-36.25c9.5-2.25,19.25-5.5,32-10.75-2,17.75-2.75,30.25-3.25,46.5a212.39,212.39,0,0,0,35.75-2A187.82,187.82,0,0,1,1831.53,358.47Z" transform="translate(0 -15.49)"/><path class="cls-2" d="M1947.77,379c0,3.75-.25,9.5-.5,12.75-18.75,4.25-44.25,8.5-69.5,9,2.25,17.25,14,25,33.5,25a48.42,48.42,0,0,0,28-8.75,234.7,234.7,0,0,1-2.5,26.25c-5.75,3-14.25,6-31.25,6-33.75,0-57.25-20.5-57.25-60.5,0-41.25,23.5-62,53-62,29,0,46.5,19.25,46.5,52ZM1899,351.47c-10.5,0-21.75,10-22.25,28,16-.25,32.25-2,43-4.5C1919.77,359,1912.52,351.47,1899,351.47Z" transform="translate(0 -15.49)"/><path class="cls-2" d="M2064.27,400.47c0,14.5-.25,30.5,1,46-7.75,2.75-17.75,5-28,7.5.25-2.5.5-5.75.5-8.5a58.79,58.79,0,0,1-18.25,2.75c-32,0-58.25-21.75-58.25-60.25,0-34,21.25-61,56.5-61a61.7,61.7,0,0,1,19.75,3.25c-.5-28.25-1.75-44.25-3-58a190.41,190.41,0,0,0,32-10.5C2065.27,287,2064.27,352.22,2064.27,400.47ZM2037,356.22a45.44,45.44,0,0,0-16.75-3.5c-17.25,0-29.75,11.75-29.75,33.75,0,25.75,14.25,38,33.5,38a56.93,56.93,0,0,0,13.5-2C2037.77,407,2037.27,375.47,2037,356.22Z" transform="translate(0 -15.49)"/><line class="cls-2" x1="609.8" y1="470.65" x2="2506.75" y2="470.65"/><path d="M618.6,509.29,628,559.21h2.32l11.28-49.44h7.2l11.28,49.44h2.32l9.44-49.92h6.32L667,564.65H655.72l-10.48-47.28-10.48,47.28H623.48L612.2,509.29Z" transform="translate(0 -15.49)"/><path d="M714.36,559.45l.16,4.72a139.47,139.47,0,0,1-15.6,1.28c-11.92,0-15.84-7-15.84-20.56,0-15.2,6.56-21,16.72-21,10.64,0,16.08,5.6,16.08,18.72l-.32,4.56h-26.4c0,8.56,2.64,13,10.48,13C705.64,560.17,714.36,559.45,714.36,559.45Zm-4.48-17.12c0-9.92-3-13.44-10.08-13.44-6.8,0-10.64,3.76-10.72,13.44Z" transform="translate(0 -15.49)"/><path d="M743.88,509.29H755l15.68,46.8,15.68-46.8h11.12v55.36h-6.16v-48.8H790.2l-16.08,46.8h-6.88l-16.08-46.8H750v48.8h-6.16Z" transform="translate(0 -15.49)"/><path d="M838.28,557.21c.16,2.32,2.08,3.2,4.64,3.52l-.24,4.72c-4.24,0-7.12-.8-9.52-3.2a40.89,40.89,0,0,1-14.4,3.2c-7.28,0-11.28-4.16-11.28-12.24,0-7.68,4-11,12.24-11.84l12.56-1.2v-3.44c0-5.6-2.4-7.6-7.2-7.6-5.6,0-15.13,1-15.13,1l-.23-4.56a96.87,96.87,0,0,1,15.67-1.76c9.05,0,12.89,4.16,12.89,12.88Zm-17.85-11.36c-4.87.48-6.79,2.8-6.79,7.2,0,4.64,2,7.36,6.08,7.36a42.4,42.4,0,0,0,12.56-2.48v-13.2Z" transform="translate(0 -15.49)"/><path d="M850.11,564.65V507.21h6v33.92l6.23-.32,11.45-16.16h6.8l-13,18.4,13.6,21.6h-6.8l-11.93-18.56-6.31.24v18.32Z" transform="translate(0 -15.49)"/><path d="M916.92,559.45l.16,4.72a139.47,139.47,0,0,1-15.6,1.28c-11.92,0-15.84-7-15.84-20.56,0-15.2,6.56-21,16.72-21,10.64,0,16.08,5.6,16.08,18.72l-.32,4.56h-26.4c0,8.56,2.64,13,10.48,13C908.2,560.17,916.92,559.45,916.92,559.45Zm-4.48-17.12c0-9.92-3-13.44-10.08-13.44-6.8,0-10.64,3.76-10.72,13.44Z" transform="translate(0 -15.49)"/><path d="M946.43,509.29h6.16v55.36h-6.16Z" transform="translate(0 -15.49)"/><path d="M973.07,529.85V549c0,8.72.56,11.2,5.76,11.2,2.24,0,7.12-.48,7.12-.48l.4,5a70,70,0,0,1-8.16.88c-8.24,0-11-3.12-11-14.64v-21h-5.68v-5.2h5.68V512.41h5.92v12.24h12.72v5.2Z" transform="translate(0 -15.49)"/><path d="M1046.11,539.61H1018v25h-6.16V509.29H1018v24.8h28.16v-24.8h6.08v55.36h-6.08Z" transform="translate(0 -15.49)"/><path d="M1093,557.21c.16,2.32,2.08,3.2,4.64,3.52l-.24,4.72c-4.24,0-7.12-.8-9.52-3.2a40.89,40.89,0,0,1-14.4,3.2c-7.28,0-11.28-4.16-11.28-12.24,0-7.68,4-11,12.24-11.84l12.56-1.2v-3.44c0-5.6-2.4-7.6-7.2-7.6-5.6,0-15.12,1-15.12,1l-.24-4.56a96.89,96.89,0,0,1,15.68-1.76c9,0,12.88,4.16,12.88,12.88Zm-17.84-11.36c-4.88.48-6.8,2.8-6.8,7.2,0,4.64,2,7.36,6.08,7.36a42.4,42.4,0,0,0,12.56-2.48v-13.2Z" transform="translate(0 -15.49)"/><path d="M1104.83,524.65h5.92v2.88s6.08-3.68,12-3.68c10.08,0,14.48,6.16,14.48,20.32,0,15.68-5.12,21.28-17.44,21.28a51.92,51.92,0,0,1-9-.88v17.84h-6Zm6,7.76v27a60,60,0,0,0,8.64.88c8.8,0,11.68-4.56,11.68-16.08,0-11-3.44-15-9.28-15C1116.43,529.21,1110.83,532.41,1110.83,532.41Z" transform="translate(0 -15.49)"/><path d="M1147,524.65h5.92v2.88s6.08-3.68,12-3.68c10.08,0,14.48,6.16,14.48,20.32,0,15.68-5.12,21.28-17.44,21.28a51.92,51.92,0,0,1-9-.88v17.84h-6Zm6,7.76v27a60,60,0,0,0,8.64.88c8.8,0,11.68-4.56,11.68-16.08,0-11-3.44-15-9.28-15C1158.59,529.21,1153,532.41,1153,532.41Z" transform="translate(0 -15.49)"/><path d="M1218.67,559.45l.16,4.72a139.47,139.47,0,0,1-15.6,1.28c-11.92,0-15.84-7-15.84-20.56,0-15.2,6.56-21,16.72-21,10.64,0,16.08,5.6,16.08,18.72l-.32,4.56h-26.4c0,8.56,2.64,13,10.48,13C1210,560.17,1218.67,559.45,1218.67,559.45Zm-4.48-17.12c0-9.92-3-13.44-10.08-13.44-6.8,0-10.64,3.76-10.72,13.44Z" transform="translate(0 -15.49)"/><path d="M1229.55,564.65v-40h5.92v2.8s6.48-3.6,12.4-3.6c11,0,13.52,5.44,13.52,19.68v21.12h-5.92v-21c0-10.56-1.2-14.48-8.64-14.48a27.38,27.38,0,0,0-11.28,3v32.48Z" transform="translate(0 -15.49)"/></g></g></svg>